<svg xmlns="http://www.w3.org/2000/svg" version="1.1" xmlns:xlink="http://www.w3.org/1999/xlink" xmlns:svgjs="http://svgjs.dev/svgjs" width="2000" height="1247" viewBox="0 0 2000 1247"><g transform="matrix(1,0,0,1,-1.2121212121212466,0.504858299595071)"><svg viewBox="0 0 396 247" data-background-color="#ff908b" preserveAspectRatio="xMidYMid meet" height="1247" width="2000" xmlns="http://www.w3.org/2000/svg" xmlns:xlink="http://www.w3.org/1999/xlink"><g id="tight-bounds" transform="matrix(1,0,0,1,0.2400000000000091,-0.09999999999999432)"><svg viewBox="0 0 395.52 247.2" height="247.2" width="395.52"><g><svg></svg></g><g><svg viewBox="0 0 395.52 247.2" height="247.2" width="395.52"><g transform="matrix(1,0,0,1,101.14398081334724,47.215199999999996)"><svg viewBox="0 0 193.2320383733055 152.7696" height="152.7696" width="193.2320383733055"><g><svg viewBox="0 0 193.2320383733055 152.7696" height="152.7696" width="193.2320383733055"><g><svg viewBox="0 0 193.2320383733055 152.7696" height="152.7696" width="193.2320383733055"><g><svg viewBox="0 0 193.2320383733055 152.7696" height="152.7696" width="193.2320383733055"><g id="textblocktransform"><svg viewBox="0 0 193.2320383733055 152.7696" height="152.7696" width="193.2320383733055" id="textblock"><g><svg viewBox="0 0 193.2320383733055 152.7696" height="152.7696" width="193.2320383733055"><g transform="matrix(1,0,0,1,0,0)"><svg width="193.2320383733055" viewBox="1.65 -37.6 60.65 47.95" height="152.7696" data-palette-color="#ed2647"><path d="M23-20.95L27.85-20.9 27.85-2.1Q27.85 0.8 27.25 3.1 26.65 5.4 25.43 7.03 24.2 8.65 22.28 9.5 20.35 10.35 17.65 10.35L17.65 10.35Q15.15 10.35 13.48 9.65 11.8 8.95 10.8 7.85 9.8 6.75 9.4 5.38 9 4 9 2.7L9 2.7Q9 1.6 9.28 0.53 9.55-0.55 10.23-1.43 10.9-2.3 12.03-2.85 13.15-3.4 14.8-3.4L14.8-3.4Q16.8-3.4 18.1-2.53 19.4-1.65 19.4 0.1L19.4 0.1Q19.4 0.35 19.35 0.73 19.3 1.1 19.15 1.5L19.15 1.5Q18.3 0.55 17.43 0.33 16.55 0.1 16 0.1L16 0.1Q14.25 0.1 13.45 1.05 12.65 2 12.65 3.45L12.65 3.45Q12.65 4.5 13.05 5.43 13.45 6.35 14.13 7 14.8 7.65 15.73 8.03 16.65 8.4 17.65 8.4L17.65 8.4Q18.5 8.4 19.35 8.08 20.2 7.75 20.88 7 21.55 6.25 21.98 4.95 22.4 3.65 22.4 1.7L22.4 1.7 22.4-10.2Q21.1-7.8 18.95-6.63 16.8-5.45 14.05-5.45L14.05-5.45Q11.3-5.45 9.03-6.58 6.75-7.7 5.1-9.73 3.45-11.75 2.55-14.63 1.65-17.5 1.65-21.05L1.65-21.05Q1.65-24.35 2.5-27.35 3.35-30.35 5.2-32.63 7.05-34.9 9.9-36.25 12.75-37.6 16.75-37.6L16.75-37.6Q18.55-37.6 20.35-37.27 22.15-36.95 23.63-36.13 25.1-35.3 26.03-33.9 26.95-32.5 26.95-30.35L26.95-30.35Q26.95-29.7 26.83-28.98 26.7-28.25 26.35-27.63 26-27 25.38-26.6 24.75-26.2 23.7-26.2L23.7-26.2Q22.8-26.2 22.18-26.53 21.55-26.85 20.5-27.5L20.5-27.5Q20.6-27.5 20.95-27.65 21.3-27.8 21.68-28.18 22.05-28.55 22.35-29.25 22.65-29.95 22.65-31.05L22.65-31.05Q22.65-33.5 21.15-34.6 19.65-35.7 17.45-35.7L17.45-35.7Q15-35.7 13.18-34.48 11.35-33.25 10.13-31.25 8.9-29.25 8.3-26.65 7.7-24.05 7.7-21.35L7.7-21.35Q7.7-18.75 8.25-16.48 8.8-14.2 9.8-12.53 10.8-10.85 12.28-9.9 13.75-8.95 15.6-8.95L15.6-8.95Q18.9-8.95 20.75-12.08 22.6-15.2 23-20.95L23-20.95ZM41.2-32.05L46.6-32.8 46.6-21.15 47.9-21.15Q49.4-21.15 50.57-21.83 51.75-22.5 52.57-23.58 53.4-24.65 53.82-26.03 54.25-27.4 54.25-28.75L54.25-28.75Q54.25-29.95 53.87-31.18 53.5-32.4 52.55-33.43 51.6-34.45 49.9-35.08 48.2-35.7 45.6-35.7L45.6-35.7Q43.25-35.7 41.27-35 39.3-34.3 37.85-32.98 36.4-31.65 35.57-29.75 34.75-27.85 34.75-25.45L34.75-25.45Q34.75-23.7 34.95-22.63 35.15-21.55 35.42-20.95 35.7-20.35 35.97-20.08 36.25-19.8 36.4-19.65L36.4-19.65Q35.35-19.65 34.3-19.98 33.25-20.3 32.4-21 31.55-21.7 31.02-22.88 30.5-24.05 30.5-25.7L30.5-25.7Q30.5-28.05 31.7-30.18 32.9-32.3 35-33.93 37.1-35.55 39.9-36.52 42.7-37.5 45.85-37.5L45.85-37.5Q48.85-37.5 51.22-36.9 53.6-36.3 55.25-35.2 56.9-34.1 57.77-32.58 58.65-31.05 58.65-29.25L58.65-29.25Q58.65-28.2 58.35-27.1 58.05-26 57.47-24.9 56.9-23.8 56.05-22.85 55.2-21.9 54.05-21.15L54.05-21.15Q55.9-20.85 57.02-20.1 58.15-19.35 58.75-18.28 59.35-17.2 59.52-15.83 59.7-14.45 59.7-12.95L59.7-12.95Q59.7-12.05 59.65-11 59.6-9.95 59.57-8.93 59.55-7.9 59.5-6.95 59.45-6 59.45-5.25L59.45-5.25Q59.45-3 60.27-1.7 61.1-0.4 62.3 0L62.3 0Q60.8 0.45 59.85 0.65 58.9 0.85 58 0.85L58 0.85Q55.75 0.85 54.67-0.6 53.6-2.05 53.6-4.3L53.6-4.3Q53.6-5.25 53.67-6.45 53.75-7.65 53.87-8.88 54-10.1 54.07-11.28 54.15-12.45 54.15-13.4L54.15-13.4Q54.15-15.1 53.77-16.28 53.4-17.45 52.77-18.13 52.15-18.8 51.27-19.1 50.4-19.4 49.4-19.4L49.4-19.4Q48.85-19.4 48.02-19.3 47.2-19.2 46.6-19.05L46.6-19.05 46.6 0 41.2 0 41.2-32.05Z" opacity="1" transform="matrix(1,0,0,1,0,0)" fill="#ed2647" class="wordmark-text-0" data-fill-palette-color="primary" id="text-0"></path></svg></g></svg></g></svg></g></svg></g></svg></g></svg></g></svg></g><g><path d="M0 123.6c0-68.262 55.338-123.6 123.6-123.6 30.402 0 58.24 10.976 79.768 29.183l-11.147 0c-19.26-14.022-42.974-22.294-68.621-22.295-64.458 0-116.712 52.254-116.712 116.712 0 64.458 52.254 116.712 116.712 116.712 25.647 0 49.361-8.272 68.621-22.295l11.147 0c-21.528 18.206-49.366 29.183-79.768 29.183-68.262 0-123.6-55.338-123.6-123.6z" fill="#ed2647" stroke="transparent" data-fill-palette-color="tertiary"></path></g></svg></g><defs></defs></svg><rect width="395.52" height="247.2" fill="none" stroke="none" visibility="hidden"></rect></g></svg></g></svg>