<svg width="121" height="71" viewBox="0 0 121 71" fill="none" xmlns="http://www.w3.org/2000/svg">
<path d="M25.22 61.2324C24.2506 61.237 23.29 61.0479 22.3946 60.6763C21.4993 60.3046 20.6871 59.7578 20.0059 59.0681L2.19944 41.2616C1.50335 40.5833 0.950108 39.7725 0.572359 38.877C0.194611 37.9815 0 37.0195 0 36.0476C0 35.0756 0.194611 34.1136 0.572359 33.2181C0.950108 32.3226 1.50335 31.5118 2.19944 30.8335L21.8751 11.1578C23.2586 9.77611 25.1339 9 27.0892 9C29.0445 9 30.9198 9.77611 32.3032 11.1578C33.685 12.5413 34.4611 14.4166 34.4611 16.3719C34.4611 18.3272 33.685 20.2025 32.3032 21.5859L17.8416 36.5395L30.5324 48.64C31.9142 50.0234 32.6903 51.8988 32.6903 53.854C32.6903 55.8093 31.9142 57.6846 30.5324 59.0681C29.8397 59.7698 29.0116 60.3235 28.0984 60.6956C27.1852 61.0676 26.2059 61.2503 25.22 61.2324V61.2324Z" fill="#915EFF"/>
<path d="M94.8476 60.347C93.8781 60.3516 92.9176 60.1625 92.0222 59.7908C91.1268 59.4192 90.3147 58.8724 89.6335 58.1827C88.2518 56.7992 87.4757 54.9239 87.4757 52.9686C87.4757 51.0133 88.2518 49.138 89.6335 47.7546L102.226 35.654L88.1578 21.5859C86.7761 20.2025 86 18.3272 86 16.3719C86 14.4166 86.7761 12.5413 88.1578 11.1578C89.5413 9.77611 91.4166 9 93.3719 9C95.3272 9 97.2025 9.77611 98.5859 11.1578L118.262 30.8335C118.958 31.5118 119.511 32.3226 119.889 33.2181C120.266 34.1136 120.461 35.0756 120.461 36.0475C120.461 37.0195 120.266 37.9815 119.889 38.877C119.511 39.7725 118.958 40.5833 118.262 41.2616L100.455 59.0681C99.6563 59.6509 98.7471 60.0649 97.783 60.2848C96.8189 60.5047 95.8201 60.5258 94.8476 60.347V60.347Z" fill="#915EFF"/>
<path d="M49.507 70.2384C48.6637 70.4162 47.7925 70.4162 46.9492 70.2384C45.9912 69.9146 45.1112 69.3949 44.3653 68.7122C43.6193 68.0296 43.0237 67.1991 42.6165 66.2735C42.2093 65.348 41.9993 64.3478 42 63.3366C42.0007 62.3254 42.212 61.3255 42.6205 60.4005L62.6897 4.91512C63.0258 3.96605 63.5527 3.0958 64.2377 2.35797C64.9228 1.62014 65.7516 1.03033 66.6732 0.624837C67.5948 0.219345 68.5896 0.00675713 69.5964 0.000158481C70.6032 -0.00644017 71.6007 0.193086 72.5275 0.586464C73.4855 0.910207 74.3655 1.42996 75.1114 2.11259C75.8574 2.79523 76.453 3.62578 76.8602 4.55132C77.2674 5.47685 77.4774 6.47707 77.4767 7.48823C77.476 8.4994 77.2647 9.49933 76.8562 10.4243L56 65.9097C55.4123 67.1525 54.4976 68.2119 53.3538 68.9745C52.21 69.737 50.8802 70.1739 49.507 70.2384V70.2384Z" fill="#915EFF"/>
</svg>
