<svg width="842" height="108" viewBox="0 0 842 108" fill="none" xmlns="http://www.w3.org/2000/svg">
<path d="M97.544 48.696V83.808C97.544 84.248 97.456 84.688 97.368 85.128V88.12C97.368 102.464 83.992 107.04 74.664 107.04C69.208 107.04 64.808 105.544 62.872 104.664C60.408 103.608 59.088 101.848 59.088 99.736C59.088 97.096 61.2 95.16 63.664 95.16C64.192 95.16 64.896 95.248 66.04 95.6C67.8 96.04 70.792 97.096 74.752 97.096C81.88 97.096 85.84 93.312 85.84 88.12V82.136C85.136 84.864 80.472 89.616 72.816 89.616C63.136 89.616 51.52 82.136 51.52 66.12C51.52 50.456 63.224 42.712 72.816 42.712C79.064 42.712 84.08 46.056 85.84 50.192V48.696C85.84 45.616 88.48 42.976 91.648 42.976C94.728 42.976 97.544 45.616 97.544 48.696ZM74.928 79.672C79.856 79.672 86.368 76.064 86.368 66.12C86.368 56.176 79.856 52.568 74.928 52.568C69.12 52.568 63.048 57.144 63.048 66.12C63.048 75.184 69.12 79.672 74.928 79.672ZM146.39 42.976C149.47 42.976 152.286 45.616 152.286 48.696V83.808C152.286 86.976 149.47 89.528 146.39 89.528C143.222 89.528 140.582 86.976 140.582 83.808V82.136C139.878 84.864 135.214 89.616 127.558 89.616C117.878 89.616 106.262 82.136 106.262 66.12C106.262 50.456 117.966 42.712 127.558 42.712C133.806 42.712 138.822 46.056 140.582 50.192V48.696C140.582 45.616 143.222 42.976 146.39 42.976ZM129.67 79.672C134.598 79.672 141.11 76.064 141.11 66.12C141.11 56.176 134.598 52.568 129.67 52.568C123.862 52.568 117.79 57.144 117.79 66.12C117.79 75.184 123.862 79.672 129.67 79.672ZM187.578 42.712C197.17 42.712 208.874 50.456 208.874 66.12C208.874 82.136 197.258 89.616 187.578 89.616C179.922 89.616 175.258 84.864 174.554 82.136V83.808C174.554 86.976 171.914 89.528 168.746 89.528C165.666 89.528 162.85 86.976 162.85 83.808V31.888C162.85 28.808 165.578 26.168 168.746 26.168C171.826 26.168 174.466 28.808 174.466 31.888V47.728C174.554 48.08 174.554 48.344 174.554 48.696V50.192C176.314 46.056 181.33 42.712 187.578 42.712ZM185.466 79.672C191.274 79.672 197.346 75.184 197.346 66.12C197.346 57.144 191.274 52.568 185.466 52.568C180.538 52.568 174.026 56.176 174.026 66.12C174.026 76.064 180.538 79.672 185.466 79.672ZM242.934 42.8C246.542 42.8 248.39 45.264 248.39 48.08C248.39 51.336 245.926 53.536 240.998 53.536C234.046 53.536 229.646 58.904 229.206 62.512V83.72C229.206 86.8 226.566 89.44 223.486 89.44C220.318 89.44 217.678 86.8 217.678 83.72V48.784C217.678 45.616 220.318 42.976 223.486 42.976C226.566 42.976 229.206 45.616 229.206 48.784V53.184C229.558 50.016 235.014 42.8 242.934 42.8ZM262.848 36.728C259.68 36.728 256.952 34.088 256.952 31.008C256.952 27.928 259.68 25.288 262.848 25.288C265.928 25.288 268.656 27.928 268.656 31.008C268.656 34.088 265.928 36.728 262.848 36.728ZM262.848 42.976C265.928 42.976 268.568 45.616 268.568 48.784V83.632C268.568 86.888 265.928 89.528 262.848 89.528C259.68 89.528 257.04 86.888 257.04 83.632V48.784C257.04 45.616 259.68 42.976 262.848 42.976ZM300.594 42.712C310.626 42.712 322.77 50.632 322.77 64.272C322.77 68.848 320.218 70.432 315.554 70.432L289.418 70.256C290.474 76.68 295.578 80.112 302.002 80.112C305.17 80.112 306.666 79.408 309.306 78.264C310.89 77.56 312.122 76.856 313.618 76.856C316.082 76.856 317.578 78.616 317.578 80.816C317.578 82.224 316.962 83.808 314.762 85.656C311.506 87.944 307.106 89.44 301.562 89.44C289.858 89.44 277.45 82.224 277.45 66.208C277.45 50.368 290.562 42.712 300.594 42.712ZM300.594 52.744C295.578 52.744 290.21 55.56 289.418 62.336H311.418C310.538 55.56 305.61 52.744 300.594 52.744ZM343.074 83.72C343.074 86.888 340.434 89.44 337.354 89.44C334.186 89.44 331.546 86.888 331.546 83.72V31.888C331.546 28.808 334.186 26.168 337.354 26.168C340.434 26.168 343.074 28.808 343.074 31.888V83.72ZM365.16 83.72C365.16 86.888 362.52 89.44 359.44 89.44C356.272 89.44 353.632 86.888 353.632 83.72V31.888C353.632 28.808 356.272 26.168 359.44 26.168C362.52 26.168 365.16 28.808 365.16 31.888V83.72ZM414.086 42.976C417.166 42.976 419.982 45.616 419.982 48.696V83.808C419.982 86.976 417.166 89.528 414.086 89.528C410.918 89.528 408.278 86.976 408.278 83.808V82.136C407.574 84.864 402.91 89.616 395.254 89.616C385.574 89.616 373.958 82.136 373.958 66.12C373.958 50.456 385.662 42.712 395.254 42.712C401.502 42.712 406.518 46.056 408.278 50.192V48.696C408.278 45.616 410.918 42.976 414.086 42.976ZM397.366 79.672C402.294 79.672 408.806 76.064 408.806 66.12C408.806 56.176 402.294 52.568 397.366 52.568C391.558 52.568 385.486 57.144 385.486 66.12C385.486 75.184 391.558 79.672 397.366 79.672ZM481.067 42.8C484.675 42.8 486.523 45.264 486.523 48.08C486.523 51.336 484.059 53.536 479.131 53.536C472.179 53.536 467.779 58.904 467.339 62.512V83.72C467.339 86.8 464.699 89.44 461.619 89.44C458.451 89.44 455.811 86.8 455.811 83.72V48.784C455.811 45.616 458.451 42.976 461.619 42.976C464.699 42.976 467.339 45.616 467.339 48.784V53.184C467.691 50.016 473.147 42.8 481.067 42.8ZM513.555 42.712C523.587 42.712 537.051 50.544 537.051 66.208C537.051 81.96 523.587 89.616 513.555 89.616C503.435 89.616 490.059 81.96 490.059 66.208C490.059 50.544 503.435 42.712 513.555 42.712ZM513.555 52.744C507.307 52.744 501.499 57.672 501.499 66.208C501.499 74.656 507.307 79.584 513.555 79.584C519.715 79.584 525.611 74.656 525.611 66.208C525.611 57.672 519.715 52.744 513.555 52.744ZM560.678 42.712C566.662 42.712 572.382 45.088 575.286 49.136C575.814 49.928 576.694 51.16 576.694 53.008C576.694 55.824 574.758 57.32 572.206 57.32C570.534 57.32 568.862 56.704 567.366 54.856C565.606 52.832 563.582 51.864 561.03 51.864C557.598 51.864 555.574 53.536 555.574 56C555.574 57.408 556.102 59.256 560.15 60.4L565.518 61.984C572.558 63.92 578.454 67.264 578.454 75.096C578.454 84.776 569.478 89.44 560.326 89.44C552.406 89.44 547.654 86.096 545.19 83.104C544.75 82.488 542.814 80.288 542.814 77.56C542.814 75.624 544.046 73.16 547.214 73.16C549.59 73.16 550.91 74.656 551.966 75.976C554.518 79.144 557.334 80.024 560.326 80.024C564.638 80.024 567.014 78.176 567.014 75.712C567.014 74.216 566.046 72.28 561.822 71.048L556.806 69.552C547.918 67.088 544.222 62.336 544.222 56.088C544.222 47.288 552.318 42.712 560.678 42.712ZM624.289 42.976C627.369 42.976 630.185 45.616 630.185 48.696V83.808C630.185 86.976 627.369 89.528 624.289 89.528C621.121 89.528 618.481 86.976 618.481 83.808V82.136C617.777 84.864 613.113 89.616 605.457 89.616C595.777 89.616 584.161 82.136 584.161 66.12C584.161 50.456 595.865 42.712 605.457 42.712C611.705 42.712 616.721 46.056 618.481 50.192V48.696C618.481 45.616 621.121 42.976 624.289 42.976ZM607.569 79.672C612.497 79.672 619.009 76.064 619.009 66.12C619.009 56.176 612.497 52.568 607.569 52.568C601.761 52.568 595.689 57.144 595.689 66.12C595.689 75.184 601.761 79.672 607.569 79.672ZM666.005 42.8C669.613 42.8 671.461 45.264 671.461 48.08C671.461 51.336 668.997 53.536 664.069 53.536C657.117 53.536 652.717 58.904 652.277 62.512V83.72C652.277 86.8 649.637 89.44 646.557 89.44C643.389 89.44 640.749 86.8 640.749 83.72V48.784C640.749 45.616 643.389 42.976 646.557 42.976C649.637 42.976 652.277 45.616 652.277 48.784V53.184C652.629 50.016 658.085 42.8 666.005 42.8ZM685.918 36.728C682.75 36.728 680.022 34.088 680.022 31.008C680.022 27.928 682.75 25.288 685.918 25.288C688.998 25.288 691.726 27.928 691.726 31.008C691.726 34.088 688.998 36.728 685.918 36.728ZM685.918 42.976C688.998 42.976 691.638 45.616 691.638 48.784V83.632C691.638 86.888 688.998 89.528 685.918 89.528C682.75 89.528 680.11 86.888 680.11 83.632V48.784C680.11 45.616 682.75 42.976 685.918 42.976ZM724.016 42.712C734.048 42.712 747.512 50.544 747.512 66.208C747.512 81.96 734.048 89.616 724.016 89.616C713.896 89.616 700.52 81.96 700.52 66.208C700.52 50.544 713.896 42.712 724.016 42.712ZM724.016 52.744C717.768 52.744 711.96 57.672 711.96 66.208C711.96 74.656 717.768 79.584 724.016 79.584C730.176 79.584 736.072 74.656 736.072 66.208C736.072 57.672 730.176 52.744 724.016 52.744Z" fill="white"/>
<path d="M25.22 89.2324C24.2506 89.237 23.29 89.0479 22.3946 88.6763C21.4993 88.3046 20.6871 87.7578 20.0059 87.0681L2.19944 69.2616C1.50335 68.5833 0.950108 67.7725 0.572359 66.877C0.194611 65.9815 0 65.0195 0 64.0476C0 63.0756 0.194611 62.1136 0.572359 61.2181C0.950108 60.3226 1.50335 59.5118 2.19944 58.8335L21.8751 39.1578C23.2586 37.7761 25.1339 37 27.0892 37C29.0445 37 30.9198 37.7761 32.3032 39.1578C33.685 40.5413 34.4611 42.4166 34.4611 44.3719C34.4611 46.3272 33.685 48.2025 32.3032 49.5859L17.8416 64.5395L30.5324 76.64C31.9142 78.0234 32.6903 79.8988 32.6903 81.854C32.6903 83.8093 31.9142 85.6846 30.5324 87.0681C29.8397 87.7698 29.0116 88.3235 28.0984 88.6956C27.1852 89.0676 26.2059 89.2503 25.22 89.2324V89.2324Z" fill="#915EFF"/>
<path d="M815.848 89.347C814.878 89.3516 813.918 89.1625 813.022 88.7908C812.127 88.4192 811.315 87.8724 810.634 87.1827C809.252 85.7992 808.476 83.9239 808.476 81.9686C808.476 80.0133 809.252 78.138 810.634 76.7546L823.226 64.654L809.158 50.5859C807.776 49.2025 807 47.3272 807 45.3719C807 43.4166 807.776 41.5413 809.158 40.1578C810.541 38.7761 812.417 38 814.372 38C816.327 38 818.202 38.7761 819.586 40.1578L839.262 59.8335C839.958 60.5118 840.511 61.3226 840.889 62.2181C841.266 63.1136 841.461 64.0756 841.461 65.0475C841.461 66.0195 841.266 66.9815 840.889 67.877C840.511 68.7725 839.958 69.5833 839.262 70.2616L821.455 88.0681C820.656 88.6509 819.747 89.0649 818.783 89.2848C817.819 89.5047 816.82 89.5258 815.848 89.347V89.347Z" fill="#915EFF"/>
<path d="M765.507 99.2384C764.664 99.4162 763.793 99.4162 762.949 99.2384C761.991 98.9146 761.111 98.3949 760.365 97.7122C759.619 97.0296 759.024 96.1991 758.617 95.2735C758.209 94.348 757.999 93.3478 758 92.3366C758.001 91.3254 758.212 90.3255 758.621 89.4005L778.69 33.9151C779.026 32.966 779.553 32.0958 780.238 31.358C780.923 30.6201 781.752 30.0303 782.673 29.6248C783.595 29.2193 784.59 29.0068 785.596 29.0002C786.603 28.9936 787.601 29.1931 788.528 29.5865C789.485 29.9102 790.365 30.43 791.111 31.1126C791.857 31.7952 792.453 32.6258 792.86 33.5513C793.267 34.4769 793.477 35.4771 793.477 36.4882C793.476 37.4994 793.265 38.4993 792.856 39.4243L772 94.9097C771.412 96.1525 770.498 97.2119 769.354 97.9745C768.21 98.737 766.88 99.1739 765.507 99.2384V99.2384Z" fill="#915EFF"/>
</svg>
